<svg width="157" height="24" viewBox="0 0 157 24" fill="none" xmlns="http://www.w3.org/2000/svg">
<path d="M20.8183 2.45471V6.37745H7.96089V9.94357H19.7469V13.8663H7.96089V17.4324H21.5326V21.3552H3.67508V2.45471H20.8183Z" fill="#F8C936"/>
<path d="M36.5758 2.45352C39.9973 2.45352 42.4295 4.43628 42.4295 7.51028C42.4295 8.8761 41.9509 10.0387 40.9581 10.7234C42.7045 11.6113 43.7296 13.1483 43.7296 15.4734C43.7296 18.7186 41.0938 21.3504 37.5008 21.3504H24.3898V2.44995H36.5758V2.45352ZM28.6756 9.94237H36.9865C37.9401 9.94237 38.5794 9.05797 38.5794 8.17714C38.5794 7.3284 38.1187 6.37625 36.633 6.37625H28.6756V9.94237ZM28.6756 17.4312H37.133C38.3187 17.4312 39.083 16.7715 39.2366 15.8265C39.433 14.5962 38.4044 13.5085 37.158 13.5085H28.6756V17.4312Z" fill="#F8C936"/>
<path d="M64.0336 2.45349V6.37622H51.1762V9.94235H62.9621V13.8651H51.1762V17.4312H64.7479V21.3539H46.8904V2.45349H64.0336Z" fill="#F8C936"/>
<path d="M72.2481 2.45349V9.58573H82.9626V2.45349H87.2484V21.3539H82.9626V13.5085H72.2481V21.3539H67.9623V2.45349H72.2481Z" fill="#F8C936"/>
<path d="M109.749 2.45349V6.37622H101.892V21.7105H97.6058V6.37622H90.1056V2.45349H109.749Z" fill="#F8C936"/>
<path d="M130.107 2.45349V21.7105H125.821V6.37622H118.46L116.517 16.8071C115.892 20.2163 113.774 21.7105 110.613 21.7105H108.32V17.4312H110.399C111.403 17.4312 112.063 16.989 112.27 15.9655L114.835 2.45349H130.107Z" fill="#F8C936"/>
<path d="M137.964 2.45349V15.5768L149.336 2.45349H153.321V21.3539H149.036V8.29836L137.7 21.3539H133.678V2.45349H137.964Z" fill="#F8C936"/>
</svg>
